<svg width="49" height="65" viewBox="0 0 49 65" fill="none" xmlns="http://www.w3.org/2000/svg">
<path d="M28.8244 64.1349C23.5871 64.1349 18.6594 63.146 14.9506 61.3505C11.2057 59.5379 9.13945 57.1116 9.1309 54.519L0.298752 0.687256L42.265 47.4615C46.5286 50.2345 48.574 52.5402 48.5179 54.5095C48.4438 57.1125 46.3576 59.5417 42.6431 61.3495C38.9533 63.146 34.0456 64.1349 28.8244 64.1349ZM0.883952 1.90896L9.5109 54.4886V54.5038C9.5109 59.6053 18.1749 63.7549 28.8244 63.7549C33.9886 63.7549 38.8374 62.7793 42.4769 61.0075C46.0574 59.2643 48.0676 56.9529 48.1379 54.4981C48.1892 52.6941 46.1363 50.4293 42.037 47.7655L42.0161 47.7522L41.999 47.7332L0.883952 1.90896Z" fill="#FAF7F7"/>
<path d="M31.759 22.1725L31.5433 21.8599C31.55 21.8552 32.2758 21.3412 32.2805 20.6002C32.2843 19.8564 31.5633 19.3187 31.5557 19.3139L31.7799 19.0071C31.816 19.0337 32.6662 19.6626 32.6605 20.6031C32.6539 21.5436 31.7951 22.1468 31.759 22.1725Z" fill="#FAF7F7"/>
<path d="M32.5626 22.8185L32.3308 22.5174C32.3413 22.5098 33.3568 21.707 33.3635 20.5319C33.3701 19.3558 32.3622 18.5179 32.3517 18.5093L32.5911 18.2148C32.6386 18.2528 33.7511 19.1724 33.7435 20.5338C33.7349 21.898 32.6111 22.7815 32.5626 22.8185Z" fill="#FAF7F7"/>
<path d="M33.6428 23.3363L33.3939 23.0485C33.4053 23.039 34.5406 22.0348 34.5491 20.5547C34.5577 19.0727 33.4319 18.0268 33.4205 18.0163L33.6761 17.7351C33.7274 17.7817 34.9386 18.9017 34.9282 20.5566C34.9206 22.2144 33.6951 23.2917 33.6428 23.3363Z" fill="#FAF7F7"/>
<path d="M18.3031 6.04528L19.5438 7.41613C19.6113 7.49023 19.6198 7.52158 19.5856 7.59093C18.8361 9.60398 17.0938 14.2362 16.7765 14.8907L16.786 14.9012C17.0529 14.6399 17.7027 14.0129 18.5216 13.2719L21.9226 10.193C21.9758 10.1445 22.0167 10.1474 22.0737 10.211L22.9686 11.199C23.0265 11.2627 23.0246 11.3035 22.961 11.3615L16.2872 17.4035C16.2131 17.4709 16.1723 17.469 16.0953 17.3835L14.9116 16.0763C14.8347 15.9918 14.8461 15.9614 14.8613 15.8711C15.6251 14.1944 17.2971 9.54793 17.9174 8.29013L17.9079 8.27968C17.4253 8.79363 16.7774 9.38073 15.8626 10.2281L12.5053 13.2482C12.4521 13.2966 12.4103 13.3147 12.3533 13.251L11.4584 12.263C11.4004 12.1994 11.3919 12.168 11.4774 12.0911L18.1616 6.03958C18.2148 5.99018 18.2556 5.99208 18.3031 6.04528Z" fill="#FAF7F7"/>
<path d="M17.9602 19.2721C17.8965 19.33 17.8557 19.3281 17.7977 19.2645L16.8164 18.1805C16.7774 18.1378 16.7907 18.0884 16.8439 18.0399L23.5386 11.9789C23.5918 11.9305 23.6222 11.9219 23.6802 11.9856L27.1724 15.8435C27.2398 15.9176 27.2389 15.9385 27.1847 16.0069L26.4209 16.8724C26.3668 16.9408 26.3259 16.9389 26.2689 16.8752L23.7191 14.0594L21.7108 15.8777L24.0003 18.4066C24.0488 18.4598 24.0469 18.5007 23.9823 18.5577L23.132 19.3272C23.0788 19.3756 23.0285 19.3623 22.981 19.3091L20.7009 16.7907L17.9602 19.2721Z" fill="#FAF7F7"/>
<path d="M30.4745 19.255C31.0417 19.882 31.3694 20.4359 31.4825 20.8168C31.4996 20.8786 31.4882 20.908 31.4245 20.966L30.5002 21.8029C30.4156 21.8799 30.3767 21.8371 30.3691 21.7858C30.2085 21.3317 29.9397 20.8206 29.44 20.2677C28.1993 18.8969 26.438 18.7886 24.8971 20.1841C22.942 21.954 23.6564 23.7048 24.5228 24.6615C25.0329 25.2248 25.5915 25.6276 26.038 25.8224C26.1074 25.8566 26.1159 25.887 26.0523 25.9449L25.1488 26.7629C25.0852 26.8208 25.0434 26.8389 24.9636 26.8142C24.4762 26.6175 23.8407 26.1292 23.2251 25.449C21.6747 23.758 21.1911 21.2377 23.721 18.9482C25.7293 17.1308 28.5318 17.108 30.4745 19.255Z" fill="#FAF7F7"/>
<path d="M10.2253 13.3298C10.2785 13.2823 10.3099 13.2738 10.3574 13.327C10.6747 13.6585 11.3644 14.4071 12.0636 15.1861C13.8439 17.1707 13.4601 18.8256 12.2213 19.9561C10.5569 21.4495 8.6331 20.7873 7.26415 19.2607C7.04375 19.0156 6.81386 18.7591 6.74831 18.6641L4.59276 20.5983C4.53956 20.6458 4.4987 20.6439 4.4512 20.5907L3.48411 19.5134C3.43661 19.4602 3.4385 19.4193 3.4917 19.3718L10.2253 13.3298ZM7.74105 17.7739C7.818 17.8594 7.94055 18.0181 8.2854 18.4019C8.9846 19.1809 10.0106 19.7243 11.0993 18.7477C11.9638 17.9725 11.9439 17.0272 11.0917 16.0772C10.7469 15.6934 10.497 15.436 10.4191 15.3704L7.74105 17.7739Z" fill="#FAF7F7"/>
<path d="M7.90731 24.442C7.85031 24.3783 7.86171 24.3479 7.92536 24.2909L14.6371 18.2689C14.6903 18.2214 14.7321 18.2034 14.7796 18.2566C15.2318 18.7173 15.7771 19.3253 16.5723 20.2116C18.0087 21.8124 18.2177 23.377 16.9162 24.5446C15.9234 25.4347 14.8005 25.3635 13.7945 24.822C13.6928 25.3948 12.9917 28.7787 12.7238 29.5967C12.7086 29.6869 12.6459 29.724 12.588 29.6603L11.4489 28.3902C11.372 28.3047 11.3748 28.2648 11.3881 28.1945C11.5468 27.5124 12.1073 25.411 12.398 24.3612C12.4721 24.1218 12.4569 24.0192 12.2849 23.8273L11.6532 23.1234L8.99601 25.5069C8.94281 25.5544 8.90196 25.5525 8.85446 25.4993L7.90731 24.442ZM13.3556 23.0018C14.2267 23.9727 15.0808 23.9584 15.7211 23.3837C16.4364 22.7424 16.3186 21.9036 15.5434 21.0391C15.1701 20.623 14.9307 20.3561 14.8338 20.2696L12.6573 22.2228L13.3556 23.0018Z" fill="#FAF7F7"/>
<path d="M21.1912 32.2074C18.896 34.286 16.4754 34.1853 14.8376 32.3603C13.1333 30.4613 13.4249 28.0805 15.6441 26.0893C17.8101 24.1456 20.3048 24.1998 21.9417 26.0247C23.6374 27.9133 23.1871 30.4166 21.1912 32.2074ZM15.9006 31.4844C16.9057 32.6045 18.4305 32.3926 20.0198 30.9666C21.5246 29.6167 21.9037 28.0435 20.8891 26.912C19.96 25.8775 18.4162 25.8946 16.7841 27.3595C15.2907 28.7 14.8385 30.2998 15.9006 31.4844Z" fill="#FAF7F7"/>
<path d="M25.5621 30.4231C25.6153 30.3756 25.6466 30.3671 25.7036 30.4307L26.6803 31.5194C26.7278 31.5726 26.7363 31.604 26.6831 31.6515L21.4971 36.3046C19.9714 37.6735 18.6138 37.6203 17.4263 36.297C17.053 35.8809 16.7547 35.3973 16.672 35.0477C16.6359 34.9641 16.6587 34.9252 16.7224 34.8682L17.6192 34.0645C17.6724 34.017 17.7331 34.0198 17.7597 34.092C17.907 34.5566 18.1502 34.9356 18.3896 35.2026C18.9444 35.821 19.4584 35.8999 20.3865 35.0667L25.5621 30.4231Z" fill="#FAF7F7"/>
<path d="M24.2768 42.5159C24.2036 42.5624 24.1533 42.5501 24.0953 42.4855L20.5148 38.4945C20.4473 38.4195 20.4597 38.39 20.5233 38.333L27.2351 32.311C27.2987 32.253 27.3396 32.2559 27.3975 32.3195L30.8631 36.1822C30.9211 36.2459 30.9287 36.2772 30.885 36.3361L30.1269 37.2092C30.0832 37.2681 30.0214 37.2842 29.973 37.231L27.4165 34.382L25.5707 36.0378L27.8687 38.599C27.9162 38.6522 27.9143 38.6931 27.8611 38.7406L26.9966 39.5158C26.933 39.5728 26.8931 39.5509 26.8456 39.4977L24.558 36.9479L22.563 38.7387L25.2724 41.7587C25.3294 41.8224 25.3275 41.8632 25.2543 41.9098L24.2768 42.5159Z" fill="#FAF7F7"/>
<path d="M34.322 39.8007C34.8873 40.4305 35.2122 40.9863 35.3233 41.3672C35.3404 41.429 35.329 41.4584 35.2644 41.5164L34.3363 42.3495C34.2508 42.4265 34.2128 42.3837 34.2052 42.3324C34.0475 41.8774 33.7805 41.3653 33.2827 40.8105C32.0477 39.434 30.2874 39.3181 28.7398 40.707C26.7762 42.4683 27.4839 44.2229 28.3446 45.1834C28.8519 45.7486 29.4086 46.1543 29.8551 46.3519C29.9245 46.3861 29.933 46.4165 29.8684 46.4744L28.9612 47.2886C28.8975 47.3456 28.8557 47.3636 28.7759 47.3399C28.2895 47.1413 27.6559 46.6502 27.0431 45.9671C25.5003 44.2695 25.0282 41.7463 27.5675 39.4682C29.5863 37.6565 32.3878 37.6451 34.322 39.8007Z" fill="#FAF7F7"/>
<path d="M36.2867 44.3844L34.4779 42.3865C34.4199 42.3229 34.4332 42.2725 34.5064 42.226L35.4706 41.6037C35.5333 41.5667 35.5742 41.5686 35.6312 41.6322L40.1912 46.6691C40.2491 46.7328 40.2472 46.7736 40.2035 46.8325L39.4502 47.6885C39.396 47.7569 39.3352 47.754 39.2868 47.7008L37.401 45.6175L31.6516 50.8225C31.588 50.8805 31.5367 50.8881 31.4787 50.8244L30.5259 49.7728C30.4679 49.7091 30.4603 49.6578 30.5354 49.5904L36.2867 44.3844Z" fill="#FAF7F7"/>
</svg>
