<svg width="20" height="18" viewBox="0 0 20 18" fill="none" xmlns="http://www.w3.org/2000/svg">
<path d="M18.9237 4.13789C19.0521 3.69844 18.9237 3.375 18.3056 3.375H16.2605C15.7396 3.375 15.5 3.65273 15.3716 3.96211C15.3716 3.96211 14.3299 6.53203 12.8577 8.19844C12.382 8.68008 12.1632 8.83477 11.9028 8.83477C11.7743 8.83477 11.5764 8.68008 11.5764 8.24062V4.13789C11.5764 3.61055 11.4306 3.375 11 3.375H7.78476C7.45837 3.375 7.26393 3.62109 7.26393 3.84961C7.26393 4.34883 8.00004 4.46484 8.07643 5.87109V8.92266C8.07643 9.59063 7.95837 9.71367 7.69796 9.71367C7.00351 9.71367 5.31601 7.1332 4.31601 4.18008C4.11462 3.60703 3.91671 3.375 3.3924 3.375H1.34726C0.76393 3.375 0.645874 3.65273 0.645874 3.96211C0.645874 4.51055 1.34032 7.23516 3.87851 10.8352C5.56948 13.2926 7.95143 14.625 10.1181 14.625C11.4202 14.625 11.5799 14.3297 11.5799 13.8199C11.5799 11.4715 11.4618 11.25 12.1146 11.25C12.4167 11.25 12.9375 11.4047 14.1528 12.5895C15.5417 13.9957 15.7709 14.625 16.5487 14.625H18.5938C19.1771 14.625 19.4723 14.3297 19.3021 13.7461C18.9132 12.5191 16.2848 9.99492 16.1667 9.82617C15.8646 9.43242 15.9514 9.25664 16.1667 8.90508C16.1702 8.90156 18.6667 5.34375 18.9237 4.13789Z" fill="#FAF7F7"/>
</svg>
